<svg width="26" height="20" viewBox="0 0 26 20" fill="none" xmlns="http://www.w3.org/2000/svg">
<rect x="0.5" y="0.5" width="25" height="19" rx="9.5" fill="#EFE9FC"/>
<rect x="0.5" y="0.5" width="25" height="19" rx="9.5" stroke="#E3D9FC"/>
<path d="M13 11C12.44 11 12 10.55 12 10C12 9.45 12.45 9 13 9C13.55 9 14 9.45 14 10C14 10.55 13.56 11 13 11Z" fill="#9672EF"/>
<path d="M17 11C16.44 11 16 10.55 16 10C16 9.45 16.45 9 17 9C17.55 9 18 9.45 18 10C18 10.55 17.56 11 17 11Z" fill="#9672EF"/>
<path d="M9 11C8.44 11 8 10.55 8 10C8 9.45 8.45 9 9 9C9.55 9 10 9.45 10 10C10 10.55 9.56 11 9 11Z" fill="#9672EF"/>
</svg>
