<svg width="50" height="50" viewBox="0 0 50 50" fill="none" xmlns="http://www.w3.org/2000/svg">
<rect x="0.5" y="0.5" width="49" height="49" rx="24.5" fill="#14121E"/>
<rect x="0.5" y="0.5" width="49" height="49" rx="24.5" fill="#E7E6EB"/>
<rect x="0.5" y="0.5" width="49" height="49" rx="24.5" stroke="#E7E6EB"/>
<path d="M29.75 16.56V15C29.75 14.59 29.41 14.25 29 14.25C28.59 14.25 28.25 14.59 28.25 15V16.5H21.75V15C21.75 14.59 21.41 14.25 21 14.25C20.59 14.25 20.25 14.59 20.25 15V16.56C17.55 16.81 16.24 18.42 16.04 20.81C16.02 21.1 16.26 21.34 16.54 21.34H33.46C33.75 21.34 33.99 21.09 33.96 20.81C33.76 18.42 32.45 16.81 29.75 16.56Z" fill="black" fill-opacity="0.5"/>
<path d="M33 22.84H17C16.45 22.84 16 23.29 16 23.84V30C16 33 17.5 35 21 35H29C32.5 35 34 33 34 30V23.84C34 23.29 33.55 22.84 33 22.84ZM22.21 31.21C22.16 31.25 22.11 31.3 22.06 31.33C22 31.37 21.94 31.4 21.88 31.42C21.82 31.45 21.76 31.47 21.7 31.48C21.63 31.49 21.57 31.5 21.5 31.5C21.37 31.5 21.24 31.47 21.12 31.42C20.99 31.37 20.89 31.3 20.79 31.21C20.61 31.02 20.5 30.76 20.5 30.5C20.5 30.24 20.61 29.98 20.79 29.79C20.89 29.7 20.99 29.63 21.12 29.58C21.3 29.5 21.5 29.48 21.7 29.52C21.76 29.53 21.82 29.55 21.88 29.58C21.94 29.6 22 29.63 22.06 29.67C22.11 29.71 22.16 29.75 22.21 29.79C22.39 29.98 22.5 30.24 22.5 30.5C22.5 30.76 22.39 31.02 22.21 31.21ZM22.21 27.71C22.02 27.89 21.76 28 21.5 28C21.24 28 20.98 27.89 20.79 27.71C20.61 27.52 20.5 27.26 20.5 27C20.5 26.74 20.61 26.48 20.79 26.29C21.07 26.01 21.51 25.92 21.88 26.08C22.01 26.13 22.12 26.2 22.21 26.29C22.39 26.48 22.5 26.74 22.5 27C22.5 27.26 22.39 27.52 22.21 27.71ZM25.71 31.21C25.52 31.39 25.26 31.5 25 31.5C24.74 31.5 24.48 31.39 24.29 31.21C24.11 31.02 24 30.76 24 30.5C24 30.24 24.11 29.98 24.29 29.79C24.66 29.42 25.34 29.42 25.71 29.79C25.89 29.98 26 30.24 26 30.5C26 30.76 25.89 31.02 25.71 31.21ZM25.71 27.71C25.66 27.75 25.61 27.79 25.56 27.83C25.5 27.87 25.44 27.9 25.38 27.92C25.32 27.95 25.26 27.97 25.2 27.98C25.13 27.99 25.07 28 25 28C24.74 28 24.48 27.89 24.29 27.71C24.11 27.52 24 27.26 24 27C24 26.74 24.11 26.48 24.29 26.29C24.38 26.2 24.49 26.13 24.62 26.08C24.99 25.92 25.43 26.01 25.71 26.29C25.89 26.48 26 26.74 26 27C26 27.26 25.89 27.52 25.71 27.71ZM29.21 31.21C29.02 31.39 28.76 31.5 28.5 31.5C28.24 31.5 27.98 31.39 27.79 31.21C27.61 31.02 27.5 30.76 27.5 30.5C27.5 30.24 27.61 29.98 27.79 29.79C28.16 29.42 28.84 29.42 29.21 29.79C29.39 29.98 29.5 30.24 29.5 30.5C29.5 30.76 29.39 31.02 29.21 31.21ZM29.21 27.71C29.16 27.75 29.11 27.79 29.06 27.83C29 27.87 28.94 27.9 28.88 27.92C28.82 27.95 28.76 27.97 28.7 27.98C28.63 27.99 28.56 28 28.5 28C28.24 28 27.98 27.89 27.79 27.71C27.61 27.52 27.5 27.26 27.5 27C27.5 26.74 27.61 26.48 27.79 26.29C27.89 26.2 27.99 26.13 28.12 26.08C28.3 26 28.5 25.98 28.7 26.02C28.76 26.03 28.82 26.05 28.88 26.08C28.94 26.1 29 26.13 29.06 26.17C29.11 26.21 29.16 26.25 29.21 26.29C29.39 26.48 29.5 26.74 29.5 27C29.5 27.26 29.39 27.52 29.21 27.71Z" fill="black" fill-opacity="0.5"/>
</svg>
