<svg width="50" height="50" viewBox="0 0 50 50" fill="none" xmlns="http://www.w3.org/2000/svg">
<rect x="0.5" y="0.5" width="49" height="49" rx="24.5" fill="url(#paint0_linear_1_1049)"/>
<rect x="0.5" y="0.5" width="49" height="49" rx="24.5" stroke="url(#paint1_linear_1_1049)"/>
<path d="M25 35.75C19.07 35.75 14.25 30.93 14.25 25C14.25 19.07 19.07 14.25 25 14.25C30.93 14.25 35.75 19.07 35.75 25C35.75 30.93 30.93 35.75 25 35.75ZM25 15.75C19.9 15.75 15.75 19.9 15.75 25C15.75 30.1 19.9 34.25 25 34.25C30.1 34.25 34.25 30.1 34.25 25C34.25 19.9 30.1 15.75 25 15.75Z" fill="white"/>
<path d="M23.58 28.58C23.38 28.58 23.19 28.5 23.05 28.36L20.22 25.53C19.93 25.24 19.93 24.76 20.22 24.47C20.51 24.18 20.99 24.18 21.28 24.47L23.58 26.77L28.72 21.63C29.01 21.34 29.49 21.34 29.78 21.63C30.07 21.92 30.07 22.4 29.78 22.69L24.11 28.36C23.97 28.5 23.78 28.58 23.58 28.58Z" fill="white"/>
<defs>
<linearGradient id="paint0_linear_1_1049" x1="25" y1="0" x2="25" y2="50" gradientUnits="userSpaceOnUse">
<stop stop-color="#916EE8"/>
<stop offset="1" stop-color="#A27CFF"/>
</linearGradient>
<linearGradient id="paint1_linear_1_1049" x1="25" y1="0" x2="25" y2="50" gradientUnits="userSpaceOnUse">
<stop stop-color="#A27CFF"/>
<stop offset="1" stop-color="#916EE8"/>
</linearGradient>
</defs>
</svg>
