<svg width="50" height="50" viewBox="0 0 50 50" fill="none" xmlns="http://www.w3.org/2000/svg">
<rect width="50" height="50" rx="25" fill="#7D5CCE"/>
<path d="M20.24 15H18.34C16.15 15 15 16.15 15 18.33V20.23C15 22.41 16.15 23.56 18.33 23.56H20.23C22.41 23.56 23.56 22.41 23.56 20.23V18.33C23.57 16.15 22.42 15 20.24 15Z" fill="white"/>
<path d="M31.67 15H29.77C27.59 15 26.44 16.15 26.44 18.33V20.23C26.44 22.41 27.59 23.56 29.77 23.56H31.67C33.85 23.56 35 22.41 35 20.23V18.33C35 16.15 33.85 15 31.67 15Z" fill="white"/>
<path d="M31.67 26.43H29.77C27.59 26.43 26.44 27.58 26.44 29.76V31.66C26.44 33.84 27.59 34.99 29.77 34.99H31.67C33.85 34.99 35 33.84 35 31.66V29.76C35 27.58 33.85 26.43 31.67 26.43Z" fill="white"/>
<path d="M20.24 26.43H18.34C16.15 26.43 15 27.58 15 29.76V31.66C15 33.85 16.15 35 18.33 35H20.23C22.41 35 23.56 33.85 23.56 31.67V29.77C23.57 27.58 22.42 26.43 20.24 26.43Z" fill="white"/>
</svg>
