<svg width="20" height="20" viewBox="0 0 20 20" fill="none" xmlns="http://www.w3.org/2000/svg">
<path d="M4.72371 6.28661C4.60242 6.4079 4.52581 6.57388 4.52581 6.76538L4.52581 14.5151C4.52581 14.8853 4.83223 15.1917 5.20248 15.1917L12.9522 15.1917C13.3224 15.1917 13.6288 14.8853 13.6288 14.5151C13.6288 14.1448 13.3224 13.8384 12.9522 13.8384L5.87914 13.8384L5.87914 6.76538C5.87914 6.39513 5.57272 6.08872 5.20248 6.08872C5.01735 6.08234 4.84499 6.16533 4.72371 6.28661Z" fill="#E90004"/>
<path d="M15.5758 3.18418L4.83223 13.9278C4.5705 14.1895 4.5705 14.6236 4.83223 14.8853C5.09395 15.1471 5.52804 15.1471 5.78977 14.8853L16.5334 4.14172C16.7951 3.87999 16.7951 3.44591 16.5334 3.18418C16.2716 2.92245 15.8376 2.92245 15.5758 3.18418Z" fill="#E90004"/>
</svg>
