<svg width="320" height="92" viewBox="0 0 320 92" fill="none" xmlns="http://www.w3.org/2000/svg">
<rect y="40.5103" width="8.33333" height="15.5509" rx="4.16667" fill="#EFE9FC"/>
<rect y="61.3816" width="8.33333" height="30.3471" rx="4.16667" fill="url(#paint0_linear_1_1169)"/>
<rect x="28.3334" y="14.9192" width="8.33333" height="15.5509" rx="4.16667" fill="#EFE9FC"/>
<rect x="28.3334" y="36.4856" width="8.33333" height="55.2431" rx="4.16667" fill="url(#paint1_linear_1_1169)"/>
<rect x="56.6666" y="26.0601" width="8.33333" height="19.9613" rx="4.16667" fill="#EFE9FC"/>
<rect x="56.6666" y="51.4609" width="8.33333" height="40.2678" rx="4.16667" fill="url(#paint2_linear_1_1169)"/>
<rect x="85" y="6.10669" width="8.33333" height="48.176" rx="4.16667" fill="#EFE9FC"/>
<rect x="85" y="61.3816" width="8.33333" height="30.3471" rx="4.16667" fill="url(#paint3_linear_1_1169)"/>
<rect x="113.333" y="18.0737" width="8.33333" height="47.399" rx="4.16667" fill="#EFE9FC"/>
<rect x="113.333" y="73.0869" width="8.33333" height="18.6418" rx="4.16667" fill="url(#paint4_linear_1_1169)"/>
<rect x="141.667" y="5.17407" width="8.33333" height="47.399" rx="4.16667" fill="#EFE9FC"/>
<rect x="141.667" y="59.1003" width="8.33333" height="32.6284" rx="4.16667" fill="url(#paint5_linear_1_1169)"/>
<rect x="170" y="18.073" width="8.33333" height="13.8313" rx="4.16667" fill="#EFE9FC"/>
<rect x="170" y="40.51" width="8.33333" height="51.2187" rx="4.16667" fill="url(#paint6_linear_1_1169)"/>
<rect x="198.333" y="35.479" width="8.33333" height="17.0947" rx="4.16667" fill="#EFE9FC"/>
<rect x="198.333" y="59.1003" width="8.33333" height="32.6284" rx="4.16667" fill="url(#paint7_linear_1_1169)"/>
<rect x="226.667" y="14.9192" width="8.33333" height="17.0947" rx="4.16667" fill="#EFE9FC"/>
<rect x="226.667" y="37.9651" width="8.33333" height="53.7637" rx="4.16667" fill="url(#paint8_linear_1_1169)"/>
<rect x="255" width="8.33333" height="5.17404" rx="2.58702" fill="#EFE9FC"/>
<rect x="255" y="11.3906" width="8.33333" height="80.3381" rx="4.16667" fill="url(#paint9_linear_1_1169)"/>
<rect x="283.333" y="13.877" width="8.33333" height="8.39188" rx="4.16667" fill="#EFE9FC"/>
<rect x="283.333" y="27.3975" width="8.33333" height="64.3314" rx="4.16667" fill="url(#paint10_linear_1_1169)"/>
<rect x="311.667" y="33.3804" width="8.33333" height="15.223" rx="4.16667" fill="#EFE9FC"/>
<rect x="311.667" y="56.061" width="8.33333" height="35.6677" rx="4.16667" fill="url(#paint11_linear_1_1169)"/>
<defs>
<linearGradient id="paint0_linear_1_1169" x1="4.16667" y1="61.3816" x2="4.16667" y2="91.7287" gradientUnits="userSpaceOnUse">
<stop stop-color="#916EE8"/>
<stop offset="1" stop-color="#A27CFF"/>
</linearGradient>
<linearGradient id="paint1_linear_1_1169" x1="32.5" y1="36.4856" x2="32.5" y2="91.7287" gradientUnits="userSpaceOnUse">
<stop stop-color="#916EE8"/>
<stop offset="1" stop-color="#A27CFF"/>
</linearGradient>
<linearGradient id="paint2_linear_1_1169" x1="60.8333" y1="51.4609" x2="60.8333" y2="91.7287" gradientUnits="userSpaceOnUse">
<stop stop-color="#916EE8"/>
<stop offset="1" stop-color="#A27CFF"/>
</linearGradient>
<linearGradient id="paint3_linear_1_1169" x1="89.1667" y1="61.3816" x2="89.1667" y2="91.7287" gradientUnits="userSpaceOnUse">
<stop stop-color="#916EE8"/>
<stop offset="1" stop-color="#A27CFF"/>
</linearGradient>
<linearGradient id="paint4_linear_1_1169" x1="117.5" y1="73.0869" x2="117.5" y2="91.7288" gradientUnits="userSpaceOnUse">
<stop stop-color="#916EE8"/>
<stop offset="1" stop-color="#A27CFF"/>
</linearGradient>
<linearGradient id="paint5_linear_1_1169" x1="145.833" y1="59.1003" x2="145.833" y2="91.7287" gradientUnits="userSpaceOnUse">
<stop stop-color="#916EE8"/>
<stop offset="1" stop-color="#A27CFF"/>
</linearGradient>
<linearGradient id="paint6_linear_1_1169" x1="174.167" y1="40.51" x2="174.167" y2="91.7287" gradientUnits="userSpaceOnUse">
<stop stop-color="#916EE8"/>
<stop offset="1" stop-color="#A27CFF"/>
</linearGradient>
<linearGradient id="paint7_linear_1_1169" x1="202.5" y1="59.1003" x2="202.5" y2="91.7287" gradientUnits="userSpaceOnUse">
<stop stop-color="#916EE8"/>
<stop offset="1" stop-color="#A27CFF"/>
</linearGradient>
<linearGradient id="paint8_linear_1_1169" x1="230.833" y1="37.9651" x2="230.833" y2="91.7288" gradientUnits="userSpaceOnUse">
<stop stop-color="#916EE8"/>
<stop offset="1" stop-color="#A27CFF"/>
</linearGradient>
<linearGradient id="paint9_linear_1_1169" x1="259.167" y1="11.3906" x2="259.167" y2="91.7288" gradientUnits="userSpaceOnUse">
<stop stop-color="#916EE8"/>
<stop offset="1" stop-color="#A27CFF"/>
</linearGradient>
<linearGradient id="paint10_linear_1_1169" x1="287.5" y1="27.3975" x2="287.5" y2="91.7288" gradientUnits="userSpaceOnUse">
<stop stop-color="#916EE8"/>
<stop offset="1" stop-color="#A27CFF"/>
</linearGradient>
<linearGradient id="paint11_linear_1_1169" x1="315.833" y1="56.061" x2="315.833" y2="91.7288" gradientUnits="userSpaceOnUse">
<stop stop-color="#916EE8"/>
<stop offset="1" stop-color="#A27CFF"/>
</linearGradient>
</defs>
</svg>
