<svg width="20" height="20" viewBox="0 0 20 20" fill="none" xmlns="http://www.w3.org/2000/svg">
<path d="M17.5 6.45831H2.5C2.15833 6.45831 1.875 6.17498 1.875 5.83331C1.875 5.49165 2.15833 5.20831 2.5 5.20831H17.5C17.8417 5.20831 18.125 5.49165 18.125 5.83331C18.125 6.17498 17.8417 6.45831 17.5 6.45831Z" fill="#916EE8"/>
<path d="M15 10.625H5C4.65833 10.625 4.375 10.3417 4.375 10C4.375 9.65833 4.65833 9.375 5 9.375H15C15.3417 9.375 15.625 9.65833 15.625 10C15.625 10.3417 15.3417 10.625 15 10.625Z" fill="#916EE8"/>
<path d="M11.6667 14.7917H8.33337C7.99171 14.7917 7.70837 14.5084 7.70837 14.1667C7.70837 13.825 7.99171 13.5417 8.33337 13.5417H11.6667C12.0084 13.5417 12.2917 13.825 12.2917 14.1667C12.2917 14.5084 12.0084 14.7917 11.6667 14.7917Z" fill="#916EE8"/>
</svg>
