<svg width="94" height="40" viewBox="0 0 94 40" fill="none" xmlns="http://www.w3.org/2000/svg">
<rect x="0.5" y="0.5" width="93" height="39" rx="19.5" fill="#EFE9FC"/>
<rect x="0.5" y="0.5" width="93" height="39" rx="19.5" stroke="#E3D9FC"/>
<path d="M29.5 16.4583H14.5C14.1583 16.4583 13.875 16.175 13.875 15.8333C13.875 15.4916 14.1583 15.2083 14.5 15.2083H29.5C29.8417 15.2083 30.125 15.4916 30.125 15.8333C30.125 16.175 29.8417 16.4583 29.5 16.4583Z" fill="#916EE8"/>
<path d="M27 20.625H17C16.6583 20.625 16.375 20.3417 16.375 20C16.375 19.6583 16.6583 19.375 17 19.375H27C27.3417 19.375 27.625 19.6583 27.625 20C27.625 20.3417 27.3417 20.625 27 20.625Z" fill="#916EE8"/>
<path d="M23.6667 24.7917H20.3334C19.9917 24.7917 19.7084 24.5084 19.7084 24.1667C19.7084 23.825 19.9917 23.5417 20.3334 23.5417H23.6667C24.0084 23.5417 24.2917 23.825 24.2917 24.1667C24.2917 24.5084 24.0084 24.7917 23.6667 24.7917Z" fill="#916EE8"/>
<path d="M49.2529 16.5439H44.4199V19.627H48.6787V20.8301H44.4199V25H43.1348V15.3408H49.2529V16.5439ZM51.2526 16.4346C51.0202 16.4346 50.8265 16.3594 50.6715 16.209C50.5166 16.054 50.4391 15.8626 50.4391 15.6348C50.4391 15.4023 50.5166 15.2109 50.6715 15.0605C50.8265 14.9102 51.0202 14.835 51.2526 14.835C51.4804 14.835 51.6696 14.9102 51.82 15.0605C51.9704 15.2109 52.0455 15.4023 52.0455 15.6348C52.0455 15.8626 51.9681 16.054 51.8131 16.209C51.6627 16.3594 51.4759 16.4346 51.2526 16.4346ZM50.651 25V17.8633H51.8541V25H50.651ZM53.7513 25V14.917H54.9544V25H53.7513ZM60.9667 18.9502H58.8202V22.9014C58.8202 23.6396 59.203 24.0088 59.9687 24.0088C60.3014 24.0088 60.634 23.9199 60.9667 23.7422V24.877C60.6067 25.0729 60.1897 25.1709 59.7157 25.1709C59.0276 25.1709 58.5058 24.9909 58.1503 24.6309C57.7948 24.2708 57.6171 23.7581 57.6171 23.0928V18.9502H56.332V17.8633H57.6171V15.9424H58.8202V17.8633H60.9667V18.9502ZM69.0982 21.4316C69.0982 21.5 69.0868 21.6777 69.064 21.9648H62.9185C63.0416 22.5938 63.3401 23.1019 63.814 23.4893C64.2925 23.8721 64.8759 24.0635 65.564 24.0635C66.0744 24.0635 66.5438 23.9564 66.9722 23.7422C67.4006 23.5234 67.7356 23.2432 67.9771 22.9014L68.8043 23.6123C68.4442 24.0954 67.9771 24.4759 67.4029 24.7539C66.8332 25.0319 66.2066 25.1709 65.523 25.1709C64.4065 25.1709 63.4768 24.8109 62.7339 24.0908C61.9911 23.3708 61.6197 22.4753 61.6197 21.4043C61.6197 20.7116 61.7815 20.0827 62.105 19.5176C62.4332 18.9479 62.8843 18.5013 63.4586 18.1777C64.0328 17.8542 64.6708 17.6924 65.3726 17.6924C66.0699 17.6924 66.7033 17.8542 67.273 18.1777C67.8427 18.5013 68.2893 18.9502 68.6129 19.5244C68.9364 20.0941 69.0982 20.7298 69.0982 21.4316ZM65.3589 18.7998C64.7392 18.7998 64.2037 18.9935 63.7525 19.3809C63.3013 19.7637 63.0188 20.2604 62.9048 20.8711H67.8199C67.706 20.2513 67.4234 19.7523 66.9722 19.374C66.5211 18.9912 65.9833 18.7998 65.3589 18.7998ZM74.1398 17.7471H74.3791V18.9912H74.1398C73.3879 18.9912 72.7932 19.2122 72.3557 19.6543C71.9227 20.0918 71.7062 20.6842 71.7062 21.4316V25H70.5031V17.8633H71.7062V19.0938C72.2668 18.196 73.078 17.7471 74.1398 17.7471ZM77.8143 25.1709C76.6613 25.1709 75.6952 24.7972 74.9159 24.0498L75.5858 23.1816C76.1691 23.7786 76.9051 24.0771 77.7938 24.0771C78.2769 24.0771 78.6733 23.9883 78.9832 23.8105C79.2931 23.6283 79.4481 23.3799 79.4481 23.0654C79.4481 22.9333 79.4139 22.8148 79.3455 22.71C79.2817 22.6006 79.2043 22.5117 79.1131 22.4434C79.0265 22.375 78.8944 22.3089 78.7166 22.2451C78.5435 22.1768 78.3908 22.1266 78.2586 22.0947C78.131 22.0583 77.9487 22.0104 77.7118 21.9512C77.493 21.8965 77.3198 21.8532 77.1922 21.8213C77.0646 21.7848 76.8983 21.7301 76.6932 21.6572C76.4927 21.5843 76.3286 21.5137 76.201 21.4453C76.078 21.377 75.9412 21.2881 75.7909 21.1787C75.645 21.0648 75.5288 20.9463 75.4422 20.8232C75.3602 20.6956 75.2896 20.5452 75.2303 20.3721C75.1756 20.1943 75.1483 20.0007 75.1483 19.791C75.1483 19.3444 75.2759 18.9593 75.5311 18.6357C75.7863 18.3122 76.1167 18.0752 76.5223 17.9248C76.9279 17.7699 77.3814 17.6924 77.8827 17.6924C78.9126 17.6924 79.7853 18.0182 80.5008 18.6699L79.8241 19.5518C79.3 19.0413 78.6574 18.7861 77.8963 18.7861C77.4634 18.7861 77.1034 18.8682 76.8162 19.0322C76.5291 19.1963 76.3856 19.4264 76.3856 19.7227C76.3856 19.8594 76.4198 19.9824 76.4881 20.0918C76.5565 20.1966 76.634 20.2832 76.7205 20.3516C76.8117 20.4199 76.9484 20.4883 77.1307 20.5566C77.313 20.6204 77.4657 20.6706 77.5887 20.707C77.7163 20.7389 77.9032 20.7845 78.1493 20.8438C78.3635 20.8939 78.5343 20.9372 78.662 20.9736C78.7941 21.0055 78.9605 21.0557 79.161 21.124C79.3615 21.1924 79.5233 21.2607 79.6463 21.3291C79.7739 21.3929 79.9107 21.4795 80.0565 21.5889C80.2023 21.6982 80.3162 21.8145 80.3983 21.9375C80.4803 22.0605 80.5487 22.2109 80.6034 22.3887C80.6626 22.5618 80.6922 22.751 80.6922 22.9561C80.6922 23.6442 80.4211 24.1865 79.8787 24.583C79.3364 24.9749 78.6483 25.1709 77.8143 25.1709Z" fill="#916EE8"/>
</svg>
