<svg width="50" height="50" viewBox="0 0 50 50" fill="none" xmlns="http://www.w3.org/2000/svg">
<rect x="0.5" y="0.5" width="49" height="49" rx="24.5" fill="url(#paint0_linear_1_1035)"/>
<rect x="0.5" y="0.5" width="49" height="49" rx="24.5" stroke="url(#paint1_linear_1_1035)"/>
<path d="M25 35.75C19.07 35.75 14.25 30.93 14.25 25C14.25 19.07 19.07 14.25 25 14.25C30.93 14.25 35.75 19.07 35.75 25C35.75 30.93 30.93 35.75 25 35.75ZM25 15.75C19.9 15.75 15.75 19.9 15.75 25C15.75 30.1 19.9 34.25 25 34.25C30.1 34.25 34.25 30.1 34.25 25C34.25 19.9 30.1 15.75 25 15.75Z" fill="white"/>
<path d="M28.71 28.93C28.58 28.93 28.45 28.9 28.33 28.82L25.23 26.97C24.46 26.51 23.89 25.5 23.89 24.61V20.51C23.89 20.1 24.23 19.76 24.64 19.76C25.05 19.76 25.39 20.1 25.39 20.51V24.61C25.39 24.97 25.69 25.5 26 25.68L29.1 27.53C29.46 27.74 29.57 28.2 29.36 28.56C29.21 28.8 28.96 28.93 28.71 28.93Z" fill="white"/>
<defs>
<linearGradient id="paint0_linear_1_1035" x1="25" y1="0" x2="25" y2="50" gradientUnits="userSpaceOnUse">
<stop stop-color="#916EE8"/>
<stop offset="1" stop-color="#A27CFF"/>
</linearGradient>
<linearGradient id="paint1_linear_1_1035" x1="25" y1="0" x2="25" y2="50" gradientUnits="userSpaceOnUse">
<stop stop-color="#A27CFF"/>
<stop offset="1" stop-color="#916EE8"/>
</linearGradient>
</defs>
</svg>
