<svg width="50" height="50" viewBox="0 0 50 50" fill="none" xmlns="http://www.w3.org/2000/svg">
<rect x="0.5" y="0.5" width="49" height="49" rx="24.5" fill="url(#paint0_linear_1_1063)"/>
<rect x="0.5" y="0.5" width="49" height="49" rx="24.5" stroke="url(#paint1_linear_1_1063)"/>
<path d="M25 26.75C24.59 26.75 24.25 26.41 24.25 26V20.75C24.25 20.34 24.59 20 25 20C25.41 20 25.75 20.34 25.75 20.75V26C25.75 26.41 25.41 26.75 25 26.75Z" fill="white"/>
<path d="M25 30.25C24.73 30.25 24.48 30.15 24.29 29.96C24.2 29.86 24.13 29.75 24.07 29.63C24.02 29.51 24 29.38 24 29.25C24 28.99 24.11 28.73 24.29 28.54C24.66 28.17 25.34 28.17 25.71 28.54C25.89 28.73 26 28.99 26 29.25C26 29.38 25.97 29.51 25.92 29.63C25.87 29.75 25.8 29.86 25.71 29.96C25.52 30.15 25.27 30.25 25 30.25Z" fill="white"/>
<path d="M25.0002 35.75C24.3302 35.75 23.6502 35.58 23.0502 35.23L17.1102 31.8C15.9102 31.1 15.1602 29.81 15.1602 28.42V21.58C15.1602 20.19 15.9102 18.9 17.1102 18.2L23.0502 14.77C24.2502 14.07 25.7402 14.07 26.9502 14.77L32.8902 18.2C34.0902 18.9 34.8402 20.19 34.8402 21.58V28.42C34.8402 29.81 34.0902 31.1 32.8902 31.8L26.9502 35.23C26.3502 35.58 25.6702 35.75 25.0002 35.75ZM25.0002 15.75C24.5902 15.75 24.1702 15.86 23.8002 16.07L17.8602 19.5C17.1202 19.93 16.6602 20.72 16.6602 21.58V28.42C16.6602 29.27 17.1202 30.07 17.8602 30.5L23.8002 33.93C24.5402 34.36 25.4602 34.36 26.1902 33.93L32.1302 30.5C32.8702 30.07 33.3302 29.28 33.3302 28.42V21.58C33.3302 20.73 32.8702 19.93 32.1302 19.5L26.1902 16.07C25.8302 15.86 25.4102 15.75 25.0002 15.75Z" fill="white"/>
<defs>
<linearGradient id="paint0_linear_1_1063" x1="25" y1="0" x2="25" y2="50" gradientUnits="userSpaceOnUse">
<stop stop-color="#916EE8"/>
<stop offset="1" stop-color="#A27CFF"/>
</linearGradient>
<linearGradient id="paint1_linear_1_1063" x1="25" y1="0" x2="25" y2="50" gradientUnits="userSpaceOnUse">
<stop stop-color="#A27CFF"/>
<stop offset="1" stop-color="#916EE8"/>
</linearGradient>
</defs>
</svg>
