<svg width="50" height="50" viewBox="0 0 50 50" fill="none" xmlns="http://www.w3.org/2000/svg">
<rect x="0.5" y="0.5" width="49" height="49" rx="24.5" fill="#E7E6EB"/>
<rect x="0.5" y="0.5" width="49" height="49" rx="24.5" stroke="#E7E6EB"/>
<path d="M32.4346 17.0345C32.5669 17.2424 32.3403 17.4846 32.1 17.43C31.63 17.29 31.11 17.22 30.58 17.22H27.2797C27.1225 17.22 26.9744 17.1461 26.88 17.0204L25.73 15.49C25.5891 15.2904 25.7223 15 25.9665 15H28.72C30.281 15 31.6561 15.8107 32.4346 17.0345Z" fill="black" fill-opacity="0.5"/>
<path d="M33.14 19.54C32.71 19.23 32.22 19 31.69 18.87C31.33 18.77 30.96 18.72 30.58 18.72H26.86C26.28 18.72 26.24 18.67 25.93 18.26L24.53 16.4C23.88 15.53 23.37 15 21.74 15H19.42C16.98 15 15 16.98 15 19.42V30.58C15 33.02 16.98 35 19.42 35H30.58C33.02 35 35 33.02 35 30.58V23.14C35 21.65 34.27 20.34 33.14 19.54ZM27.39 29.34H22.6C22.21 29.34 21.91 29.03 21.91 28.64C21.91 28.26 22.21 27.94 22.6 27.94H27.39C27.78 27.94 28.09 28.26 28.09 28.64C28.09 29.03 27.78 29.34 27.39 29.34Z" fill="black" fill-opacity="0.5"/>
</svg>
