<svg width="141" height="40" viewBox="0 0 141 40" fill="none" xmlns="http://www.w3.org/2000/svg">
<rect x="0.5" y="0.5" width="140" height="39" rx="19.5" fill="#EFE9FC"/>
<rect x="0.5" y="0.5" width="140" height="39" rx="19.5" stroke="#E3D9FC"/>
<path d="M30.3333 20C30.3333 24.6 26.6 28.3334 22 28.3334C17.4 28.3334 14.5916 23.7 14.5916 23.7M14.5916 27.8667V23.7H18.3583M13.6666 20C13.6666 15.4 17.3666 11.6667 22 11.6667C27.5583 11.6667 30.3333 16.3 30.3333 16.3M26.6333 16.3H30.3333V12.1334" stroke="#916EE8" stroke-width="1.5" stroke-linecap="round" stroke-linejoin="round"/>
<path d="M48.7197 25L45.835 21.165H44.4199V25H43.1348V15.3408H47.0518C47.9085 15.3408 48.624 15.6211 49.1982 16.1816C49.777 16.7422 50.0664 17.4417 50.0664 18.2803C50.0664 19.0596 49.8066 19.7204 49.2871 20.2627C48.7721 20.8005 48.1204 21.0967 47.332 21.1514L50.2715 25H48.7197ZM44.4199 16.5439V20.0439H47.0244C47.5166 20.0439 47.9268 19.8776 48.2549 19.5449C48.583 19.2122 48.7471 18.7952 48.7471 18.2939C48.7471 17.7926 48.583 17.3757 48.2549 17.043C47.9268 16.7103 47.5166 16.5439 47.0244 16.5439H44.4199ZM58.403 21.4316C58.403 21.5 58.3916 21.6777 58.3688 21.9648H52.2233C52.3463 22.5938 52.6448 23.1019 53.1188 23.4893C53.5973 23.8721 54.1806 24.0635 54.8688 24.0635C55.3792 24.0635 55.8486 23.9564 56.277 23.7422C56.7054 23.5234 57.0403 23.2432 57.2819 22.9014L58.109 23.6123C57.749 24.0954 57.2819 24.4759 56.7077 24.7539C56.138 25.0319 55.5114 25.1709 54.8278 25.1709C53.7112 25.1709 52.7815 24.8109 52.0387 24.0908C51.2959 23.3708 50.9245 22.4753 50.9245 21.4043C50.9245 20.7116 51.0862 20.0827 51.4098 19.5176C51.7379 18.9479 52.1891 18.5013 52.7633 18.1777C53.3375 17.8542 53.9756 17.6924 54.6774 17.6924C55.3746 17.6924 56.0081 17.8542 56.5778 18.1777C57.1474 18.5013 57.594 18.9502 57.9176 19.5244C58.2412 20.0941 58.403 20.7298 58.403 21.4316ZM54.6637 18.7998C54.0439 18.7998 53.5084 18.9935 53.0573 19.3809C52.6061 19.7637 52.3235 20.2604 52.2096 20.8711H57.1246C57.0107 20.2513 56.7282 19.7523 56.277 19.374C55.8258 18.9912 55.2881 18.7998 54.6637 18.7998ZM62.5012 15.8604C61.7356 15.8604 61.3528 16.2227 61.3528 16.9473V17.8633H63.4104V18.9502H61.3528V25H60.1497V18.9502H58.8509V17.8633H60.1497V16.8652C60.1497 16.1862 60.3274 15.6644 60.6829 15.2998C61.0384 14.9352 61.5602 14.7529 62.2483 14.7529C62.6995 14.7529 63.1119 14.8509 63.4856 15.0469V16.1133C63.1712 15.9447 62.843 15.8604 62.5012 15.8604ZM68.2402 17.7471H68.4794V18.9912H68.2402C67.4882 18.9912 66.8935 19.2122 66.456 19.6543C66.023 20.0918 65.8066 20.6842 65.8066 21.4316V25H64.6034V17.8633H65.8066V19.0938C66.3671 18.196 67.1783 17.7471 68.2402 17.7471ZM76.3306 21.4316C76.3306 21.5 76.3192 21.6777 76.2964 21.9648H70.1509C70.274 22.5938 70.5725 23.1019 71.0464 23.4893C71.525 23.8721 72.1083 24.0635 72.7964 24.0635C73.3069 24.0635 73.7763 23.9564 74.2046 23.7422C74.633 23.5234 74.968 23.2432 75.2095 22.9014L76.0367 23.6123C75.6767 24.0954 75.2095 24.4759 74.6353 24.7539C74.0657 25.0319 73.439 25.1709 72.7554 25.1709C71.6389 25.1709 70.7092 24.8109 69.9664 24.0908C69.2235 23.3708 68.8521 22.4753 68.8521 21.4043C68.8521 20.7116 69.0139 20.0827 69.3375 19.5176C69.6656 18.9479 70.1168 18.5013 70.691 18.1777C71.2652 17.8542 71.9032 17.6924 72.605 17.6924C73.3023 17.6924 73.9358 17.8542 74.5054 18.1777C75.0751 18.5013 75.5217 18.9502 75.8453 19.5244C76.1688 20.0941 76.3306 20.7298 76.3306 21.4316ZM72.5914 18.7998C71.9716 18.7998 71.4361 18.9935 70.9849 19.3809C70.5338 19.7637 70.2512 20.2604 70.1373 20.8711H75.0523C74.9384 20.2513 74.6558 19.7523 74.2046 19.374C73.7535 18.9912 73.2157 18.7998 72.5914 18.7998ZM80.0734 25.1709C78.9204 25.1709 77.9543 24.7972 77.175 24.0498L77.8449 23.1816C78.4283 23.7786 79.1643 24.0771 80.0529 24.0771C80.536 24.0771 80.9325 23.9883 81.2424 23.8105C81.5523 23.6283 81.7072 23.3799 81.7072 23.0654C81.7072 22.9333 81.673 22.8148 81.6047 22.71C81.5409 22.6006 81.4634 22.5117 81.3723 22.4434C81.2857 22.375 81.1535 22.3089 80.9758 22.2451C80.8026 22.1768 80.6499 22.1266 80.5178 22.0947C80.3902 22.0583 80.2079 22.0104 79.9709 21.9512C79.7521 21.8965 79.579 21.8532 79.4514 21.8213C79.3238 21.7848 79.1574 21.7301 78.9523 21.6572C78.7518 21.5843 78.5878 21.5137 78.4602 21.4453C78.3371 21.377 78.2004 21.2881 78.05 21.1787C77.9042 21.0648 77.788 20.9463 77.7014 20.8232C77.6193 20.6956 77.5487 20.5452 77.4895 20.3721C77.4348 20.1943 77.4074 20.0007 77.4074 19.791C77.4074 19.3444 77.535 18.9593 77.7902 18.6357C78.0454 18.3122 78.3758 18.0752 78.7814 17.9248C79.187 17.7699 79.6405 17.6924 80.1418 17.6924C81.1717 17.6924 82.0445 18.0182 82.76 18.6699L82.0832 19.5518C81.5591 19.0413 80.9165 18.7861 80.1555 18.7861C79.7225 18.7861 79.3625 18.8682 79.0754 19.0322C78.7883 19.1963 78.6447 19.4264 78.6447 19.7227C78.6447 19.8594 78.6789 19.9824 78.7473 20.0918C78.8156 20.1966 78.8931 20.2832 78.9797 20.3516C79.0708 20.4199 79.2076 20.4883 79.3898 20.5566C79.5721 20.6204 79.7248 20.6706 79.8479 20.707C79.9755 20.7389 80.1623 20.7845 80.4084 20.8438C80.6226 20.8939 80.7935 20.9372 80.9211 20.9736C81.0533 21.0055 81.2196 21.0557 81.4201 21.124C81.6206 21.1924 81.7824 21.2607 81.9055 21.3291C82.0331 21.3929 82.1698 21.4795 82.3156 21.5889C82.4615 21.6982 82.5754 21.8145 82.6574 21.9375C82.7395 22.0605 82.8078 22.2109 82.8625 22.3887C82.9217 22.5618 82.9514 22.751 82.9514 22.9561C82.9514 23.6442 82.6802 24.1865 82.1379 24.583C81.5956 24.9749 80.9074 25.1709 80.0734 25.1709ZM88.1092 17.6924C88.9797 17.6924 89.6792 17.9567 90.2079 18.4854C90.7411 19.014 91.0077 19.7158 91.0077 20.5908V25H89.8045V20.9668C89.8045 20.3288 89.6154 19.8184 89.2371 19.4355C88.8589 19.0482 88.353 18.8545 87.7196 18.8545C87.0588 18.8545 86.5301 19.0505 86.1336 19.4424C85.7371 19.8343 85.5389 20.3516 85.5389 20.9941V25H84.3358V14.917H85.5389V18.9912C86.1177 18.1253 86.9745 17.6924 88.1092 17.6924ZM99.9767 15.3408C100.897 15.3408 101.731 15.5505 102.479 15.9697C103.226 16.389 103.812 16.9678 104.235 17.7061C104.659 18.4398 104.871 19.2601 104.871 20.167C104.871 21.0739 104.659 21.8965 104.235 22.6348C103.812 23.373 103.226 23.9518 102.479 24.3711C101.731 24.7904 100.897 25 99.9767 25H96.2511V15.3408H99.9767ZM99.963 23.7969C100.984 23.7969 101.838 23.4505 102.526 22.7578C103.215 22.0651 103.559 21.2015 103.559 20.167C103.559 19.488 103.401 18.8727 103.087 18.3213C102.777 17.7653 102.346 17.3301 101.795 17.0156C101.248 16.7012 100.637 16.5439 99.963 16.5439H97.5363V23.7969H99.963ZM112.326 17.8633H113.529V25H112.326V23.7148C112.021 24.1706 111.626 24.5283 111.143 24.7881C110.665 25.0433 110.134 25.1709 109.551 25.1709C108.881 25.1709 108.272 25.0091 107.725 24.6855C107.178 24.3574 106.75 23.9085 106.44 23.3389C106.135 22.7646 105.982 22.1289 105.982 21.4316C105.982 20.7344 106.135 20.1009 106.44 19.5312C106.75 18.957 107.178 18.5081 107.725 18.1846C108.272 17.8564 108.881 17.6924 109.551 17.6924C110.134 17.6924 110.665 17.8223 111.143 18.082C111.626 18.3372 112.021 18.6927 112.326 19.1484V17.8633ZM109.776 24.0088C110.505 24.0088 111.111 23.7627 111.594 23.2705C112.082 22.7783 112.326 22.1654 112.326 21.4316C112.326 20.6979 112.082 20.085 111.594 19.5928C111.111 19.1006 110.505 18.8545 109.776 18.8545C109.042 18.8545 108.432 19.1006 107.944 19.5928C107.456 20.085 107.213 20.6979 107.213 21.4316C107.213 22.1654 107.456 22.7783 107.944 23.2705C108.432 23.7627 109.042 24.0088 109.776 24.0088ZM119.555 18.9502H117.409V22.9014C117.409 23.6396 117.791 24.0088 118.557 24.0088C118.89 24.0088 119.222 23.9199 119.555 23.7422V24.877C119.195 25.0729 118.778 25.1709 118.304 25.1709C117.616 25.1709 117.094 24.9909 116.739 24.6309C116.383 24.2708 116.205 23.7581 116.205 23.0928V18.9502H114.92V17.8633H116.205V15.9424H117.409V17.8633H119.555V18.9502ZM126.579 17.8633H127.782V25H126.579V23.7148C126.274 24.1706 125.88 24.5283 125.397 24.7881C124.918 25.0433 124.387 25.1709 123.804 25.1709C123.134 25.1709 122.525 25.0091 121.979 24.6855C121.432 24.3574 121.003 23.9085 120.693 23.3389C120.388 22.7646 120.235 22.1289 120.235 21.4316C120.235 20.7344 120.388 20.1009 120.693 19.5312C121.003 18.957 121.432 18.5081 121.979 18.1846C122.525 17.8564 123.134 17.6924 123.804 17.6924C124.387 17.6924 124.918 17.8223 125.397 18.082C125.88 18.3372 126.274 18.6927 126.579 19.1484V17.8633ZM124.029 24.0088C124.759 24.0088 125.365 23.7627 125.848 23.2705C126.335 22.7783 126.579 22.1654 126.579 21.4316C126.579 20.6979 126.335 20.085 125.848 19.5928C125.365 19.1006 124.759 18.8545 124.029 18.8545C123.296 18.8545 122.685 19.1006 122.197 19.5928C121.71 20.085 121.466 20.6979 121.466 21.4316C121.466 22.1654 121.71 22.7783 122.197 23.2705C122.685 23.7627 123.296 24.0088 124.029 24.0088Z" fill="#916EE8"/>
</svg>
