<svg width="50" height="50" viewBox="0 0 50 50" fill="none" xmlns="http://www.w3.org/2000/svg">
<rect x="0.5" y="0.5" width="49" height="49" rx="24.5" fill="#14121E"/>
<rect x="0.5" y="0.5" width="49" height="49" rx="24.5" fill="#E7E6EB"/>
<rect x="0.5" y="0.5" width="49" height="49" rx="24.5" stroke="#E7E6EB"/>
<path d="M33.1 22.22C31.29 22.22 30.55 20.94 31.45 19.37C31.97 18.46 31.66 17.3 30.75 16.78L29.02 15.79C28.23 15.32 27.21 15.6 26.74 16.39L26.63 16.58C25.73 18.15 24.25 18.15 23.34 16.58L23.23 16.39C22.78 15.6 21.76 15.32 20.97 15.79L19.24 16.78C18.33 17.3 18.02 18.47 18.54 19.38C19.45 20.94 18.71 22.22 16.9 22.22C15.86 22.22 15 23.07 15 24.12V25.88C15 26.92 15.85 27.78 16.9 27.78C18.71 27.78 19.45 29.06 18.54 30.63C18.02 31.54 18.33 32.7 19.24 33.22L20.97 34.21C21.76 34.68 22.78 34.4 23.25 33.61L23.36 33.42C24.26 31.85 25.74 31.85 26.65 33.42L26.76 33.61C27.23 34.4 28.25 34.68 29.04 34.21L30.77 33.22C31.68 32.7 31.99 31.53 31.47 30.63C30.56 29.06 31.3 27.78 33.11 27.78C34.15 27.78 35.01 26.93 35.01 25.88V24.12C35 23.08 34.15 22.22 33.1 22.22ZM25 28.25C23.21 28.25 21.75 26.79 21.75 25C21.75 23.21 23.21 21.75 25 21.75C26.79 21.75 28.25 23.21 28.25 25C28.25 26.79 26.79 28.25 25 28.25Z" fill="black" fill-opacity="0.5"/>
</svg>
