<svg width="22" height="22" viewBox="0 0 22 22" fill="none" xmlns="http://www.w3.org/2000/svg">
<g clip-path="url(#clip0_1_984)">
<path d="M11 0C8.82441 0 6.69767 0.645139 4.88873 1.85383C3.07979 3.06253 1.66989 4.7805 0.83733 6.79048C0.00476615 8.80047 -0.213071 11.0122 0.211367 13.146C0.635804 15.2798 1.68345 17.2398 3.22183 18.7782C4.76021 20.3166 6.72022 21.3642 8.85401 21.7886C10.9878 22.2131 13.1995 21.9952 15.2095 21.1627C17.2195 20.3301 18.9375 18.9202 20.1462 17.1113C21.3549 15.3023 22 13.1756 22 11C21.9969 8.08359 20.8369 5.28753 18.7747 3.22531C16.7125 1.16309 13.9164 0.00315432 11 0ZM11 18.3333C10.8187 18.3333 10.6415 18.2796 10.4907 18.1789C10.34 18.0781 10.2225 17.935 10.1531 17.7675C10.0837 17.6 10.0656 17.4157 10.101 17.2378C10.1363 17.06 10.2236 16.8967 10.3518 16.7685C10.48 16.6403 10.6434 16.553 10.8212 16.5176C10.999 16.4822 11.1833 16.5004 11.3508 16.5698C11.5183 16.6392 11.6615 16.7567 11.7622 16.9074C11.8629 17.0581 11.9167 17.2354 11.9167 17.4167C11.9167 17.6598 11.8201 17.8929 11.6482 18.0648C11.4763 18.2368 11.2431 18.3333 11 18.3333ZM12.7692 11.4638C12.4987 11.633 12.2775 11.8704 12.1278 12.1521C11.9782 12.4339 11.9053 12.7501 11.9167 13.0689V13.75C11.9167 13.9931 11.8201 14.2263 11.6482 14.3982C11.4763 14.5701 11.2431 14.6667 11 14.6667C10.7569 14.6667 10.5237 14.5701 10.3518 14.3982C10.1799 14.2263 10.0833 13.9931 10.0833 13.75V13.0689C10.0698 12.4221 10.2296 11.7835 10.5462 11.2194C10.8628 10.6552 11.3246 10.186 11.8837 9.86058C12.2224 9.67404 12.4934 9.3852 12.658 9.03534C12.8227 8.68549 12.8725 8.29254 12.8003 7.91267C12.7289 7.55077 12.5512 7.21838 12.29 6.95795C12.0287 6.69752 11.6958 6.52088 11.3337 6.45058C11.0694 6.40167 10.7976 6.41146 10.5376 6.47924C10.2775 6.54703 10.0356 6.67116 9.8288 6.84284C9.62204 7.01452 9.45556 7.22957 9.34114 7.47273C9.22672 7.7159 9.16716 7.98126 9.16667 8.25C9.16667 8.49312 9.0701 8.72627 8.89819 8.89818C8.72628 9.07009 8.49312 9.16667 8.25001 9.16667C8.00689 9.16667 7.77373 9.07009 7.60182 8.89818C7.42992 8.72627 7.33334 8.49312 7.33334 8.25C7.33357 7.6033 7.50483 6.96816 7.82976 6.40901C8.15469 5.84987 8.62173 5.38661 9.18349 5.06622C9.74525 4.74584 10.3818 4.57973 11.0284 4.58474C11.6751 4.58976 12.309 4.76572 12.8657 5.09478C13.4224 5.42384 13.8822 5.89429 14.1984 6.45841C14.5147 7.02253 14.6761 7.66025 14.6663 8.30687C14.6564 8.9535 14.4758 9.58604 14.1426 10.1403C13.8095 10.6946 13.3356 11.1518 12.7692 11.4638Z" fill="black" fill-opacity="0.5"/>
</g>
<defs>
<clipPath id="clip0_1_984">
<rect width="22" height="22" fill="white"/>
</clipPath>
</defs>
</svg>
