<svg width="50" height="50" viewBox="0 0 50 50" fill="none" xmlns="http://www.w3.org/2000/svg">
<rect x="0.5" y="0.5" width="49" height="49" rx="24.5" fill="#E7E6EB"/>
<rect x="0.5" y="0.5" width="49" height="49" rx="24.5" stroke="#E7E6EB"/>
<g clip-path="url(#clip0_1_983)">
<path d="M25 14C22.8244 14 20.6977 14.6451 18.8887 15.8538C17.0798 17.0625 15.6699 18.7805 14.8373 20.7905C14.0048 22.8005 13.7869 25.0122 14.2114 27.146C14.6358 29.2798 15.6835 31.2398 17.2218 32.7782C18.7602 34.3166 20.7202 35.3642 22.854 35.7886C24.9878 36.2131 27.1995 35.9952 29.2095 35.1627C31.2195 34.3301 32.9375 32.9202 34.1462 31.1113C35.3549 29.3023 36 27.1756 36 25C35.9969 22.0836 34.8369 19.2875 32.7747 17.2253C30.7125 15.1631 27.9164 14.0032 25 14ZM25 32.3333C24.8187 32.3333 24.6415 32.2796 24.4907 32.1789C24.34 32.0781 24.2225 31.935 24.1531 31.7675C24.0837 31.6 24.0656 31.4157 24.101 31.2378C24.1363 31.06 24.2236 30.8967 24.3518 30.7685C24.48 30.6403 24.6434 30.553 24.8212 30.5176C24.999 30.4822 25.1833 30.5004 25.3508 30.5698C25.5183 30.6392 25.6615 30.7567 25.7622 30.9074C25.8629 31.0581 25.9167 31.2354 25.9167 31.4167C25.9167 31.6598 25.8201 31.8929 25.6482 32.0648C25.4763 32.2368 25.2431 32.3333 25 32.3333ZM26.7692 25.4638C26.4987 25.633 26.2775 25.8704 26.1278 26.1521C25.9782 26.4339 25.9053 26.7501 25.9167 27.0689V27.75C25.9167 27.9931 25.8201 28.2263 25.6482 28.3982C25.4763 28.5701 25.2431 28.6667 25 28.6667C24.7569 28.6667 24.5237 28.5701 24.3518 28.3982C24.1799 28.2263 24.0833 27.9931 24.0833 27.75V27.0689C24.0698 26.4221 24.2296 25.7835 24.5462 25.2194C24.8628 24.6552 25.3246 24.186 25.8837 23.8606C26.2224 23.674 26.4934 23.3852 26.658 23.0353C26.8227 22.6855 26.8725 22.2925 26.8003 21.9127C26.7289 21.5508 26.5512 21.2184 26.29 20.9579C26.0287 20.6975 25.6958 20.5209 25.3337 20.4506C25.0694 20.4017 24.7976 20.4115 24.5376 20.4792C24.2775 20.547 24.0356 20.6712 23.8288 20.8428C23.622 21.0145 23.4556 21.2296 23.3411 21.4727C23.2267 21.7159 23.1672 21.9813 23.1667 22.25C23.1667 22.4931 23.0701 22.7263 22.8982 22.8982C22.7263 23.0701 22.4931 23.1667 22.25 23.1667C22.0069 23.1667 21.7737 23.0701 21.6018 22.8982C21.4299 22.7263 21.3333 22.4931 21.3333 22.25C21.3336 21.6033 21.5048 20.9682 21.8298 20.409C22.1547 19.8499 22.6217 19.3866 23.1835 19.0662C23.7453 18.7458 24.3818 18.5797 25.0284 18.5847C25.6751 18.5898 26.309 18.7657 26.8657 19.0948C27.4224 19.4238 27.8822 19.8943 28.1984 20.4584C28.5147 21.0225 28.6761 21.6602 28.6663 22.3069C28.6564 22.9535 28.4758 23.586 28.1426 24.1403C27.8095 24.6946 27.3356 25.1518 26.7692 25.4638Z" fill="black" fill-opacity="0.5"/>
</g>
<defs>
<clipPath id="clip0_1_983">
<rect width="22" height="22" fill="white" transform="translate(14 14)"/>
</clipPath>
</defs>
</svg>
