<svg width="24" height="24" viewBox="0 0 24 24" fill="none" xmlns="http://www.w3.org/2000/svg">
<path d="M14.35 2H9.65C8.61 2 7.76 2.84 7.76 3.88V4.82C7.76 5.86 8.6 6.7 9.64 6.7H14.35C15.39 6.7 16.23 5.86 16.23 4.82V3.88C16.24 2.84 15.39 2 14.35 2Z" fill="black" fill-opacity="0.5"/>
<path d="M17.24 4.82001C17.24 6.41001 15.94 7.71001 14.35 7.71001H9.65C8.06 7.71001 6.76 6.41001 6.76 4.82001C6.76 4.26001 6.16 3.91001 5.66 4.17001C4.25 4.92001 3.29 6.41001 3.29 8.12001V17.53C3.29 19.99 5.3 22 7.76 22H16.24C18.7 22 20.71 19.99 20.71 17.53V8.12001C20.71 6.41001 19.75 4.92001 18.34 4.17001C17.84 3.91001 17.24 4.26001 17.24 4.82001ZM12.38 16.95H8C7.59 16.95 7.25 16.61 7.25 16.2C7.25 15.79 7.59 15.45 8 15.45H12.38C12.79 15.45 13.13 15.79 13.13 16.2C13.13 16.61 12.79 16.95 12.38 16.95ZM15 12.95H8C7.59 12.95 7.25 12.61 7.25 12.2C7.25 11.79 7.59 11.45 8 11.45H15C15.41 11.45 15.75 11.79 15.75 12.2C15.75 12.61 15.41 12.95 15 12.95Z" fill="black" fill-opacity="0.5"/>
</svg>
