<svg width="50" height="50" viewBox="0 0 50 50" fill="none" xmlns="http://www.w3.org/2000/svg">
<rect x="0.5" y="0.5" width="49" height="49" rx="24.5" fill="url(#paint0_linear_1_1021)"/>
<rect x="0.5" y="0.5" width="49" height="49" rx="24.5" stroke="url(#paint1_linear_1_1021)"/>
<path d="M29 35.75H21C17.98 35.75 16.25 34.02 16.25 31V21.25C16.25 18.1 17.85 16.5 21 16.5C21.41 16.5 21.75 16.84 21.75 17.25C21.75 17.65 21.91 18.03 22.19 18.31C22.47 18.59 22.85 18.75 23.25 18.75H26.75C27.58 18.75 28.25 18.08 28.25 17.25C28.25 16.84 28.59 16.5 29 16.5C32.15 16.5 33.75 18.1 33.75 21.25V31C33.75 34.02 32.02 35.75 29 35.75ZM20.35 18.02C18.77 18.15 17.75 18.86 17.75 21.25V31C17.75 33.22 18.78 34.25 21 34.25H29C31.22 34.25 32.25 33.22 32.25 31V21.25C32.25 18.86 31.23 18.16 29.65 18.02C29.31 19.3 28.14 20.25 26.75 20.25H23.25C22.45 20.25 21.7 19.94 21.13 19.37C20.75 18.99 20.49 18.53 20.35 18.02Z" fill="white"/>
<path d="M26.75 20.25H23.25C22.45 20.25 21.7 19.94 21.13 19.37C20.56 18.8 20.25 18.05 20.25 17.25C20.25 15.6 21.6 14.25 23.25 14.25H26.75C27.55 14.25 28.3 14.56 28.87 15.13C29.44 15.7 29.75 16.45 29.75 17.25C29.75 18.9 28.4 20.25 26.75 20.25ZM23.25 15.75C22.42 15.75 21.75 16.42 21.75 17.25C21.75 17.65 21.91 18.03 22.19 18.31C22.47 18.59 22.85 18.75 23.25 18.75H26.75C27.58 18.75 28.25 18.08 28.25 17.25C28.25 16.85 28.09 16.47 27.81 16.19C27.53 15.91 27.15 15.75 26.75 15.75H23.25Z" fill="white"/>
<path d="M25 26.75H21C20.59 26.75 20.25 26.41 20.25 26C20.25 25.59 20.59 25.25 21 25.25H25C25.41 25.25 25.75 25.59 25.75 26C25.75 26.41 25.41 26.75 25 26.75Z" fill="white"/>
<path d="M29 30.75H21C20.59 30.75 20.25 30.41 20.25 30C20.25 29.59 20.59 29.25 21 29.25H29C29.41 29.25 29.75 29.59 29.75 30C29.75 30.41 29.41 30.75 29 30.75Z" fill="white"/>
<defs>
<linearGradient id="paint0_linear_1_1021" x1="25" y1="0" x2="25" y2="50" gradientUnits="userSpaceOnUse">
<stop stop-color="#916EE8"/>
<stop offset="1" stop-color="#A27CFF"/>
</linearGradient>
<linearGradient id="paint1_linear_1_1021" x1="25" y1="0" x2="25" y2="50" gradientUnits="userSpaceOnUse">
<stop stop-color="#A27CFF"/>
<stop offset="1" stop-color="#916EE8"/>
</linearGradient>
</defs>
</svg>
