<svg width="20" height="20" viewBox="0 0 20 20" fill="none" xmlns="http://www.w3.org/2000/svg">
<path d="M15.2763 13.7134C15.3976 13.5921 15.4742 13.4261 15.4742 13.2346L15.4742 5.48492C15.4742 5.11467 15.1678 4.80826 14.7976 4.80826L7.04786 4.80826C6.67761 4.80826 6.3712 5.11467 6.3712 5.48492C6.3712 5.85517 6.67761 6.16158 7.04786 6.16158L14.1209 6.16158L14.1209 13.2346C14.1209 13.6049 14.4273 13.9113 14.7976 13.9113C14.9827 13.9177 15.155 13.8347 15.2763 13.7134Z" fill="#00C61F"/>
<path d="M4.4242 16.8158L15.1678 6.07221C15.4295 5.81048 15.4295 5.3764 15.1678 5.11467C14.9061 4.85294 14.472 4.85294 14.2103 5.11467L3.46666 15.8583C3.20493 16.12 3.20493 16.5541 3.46666 16.8158C3.72839 17.0775 4.16247 17.0775 4.4242 16.8158Z" fill="#00C61F"/>
</svg>
